# xmcd
#
# Track frame offsets: 
#        150
#        22448
#        46193
#        72800
#        90420
#        112490
#        130928
#        149253
#        169223
#        185378
#        203368
#        223995
#
# Disc length: 3351 seconds
#
# Revision: 0
# Processed by: cddbd v1.5.2PL0 Copyright (c) Steve Scherf et al.
# Submitted via: ExactAudioCopyFreeDBPlugin 1.0
#
DISCID=b60d150c
DTITLE=Gene Clark - Aircrafts and More
DYEAR=1900
DGENRE=Country
TTITLE0=Nobody Knows But Me
TTITLE1=Kansas City Southern
TTITLE2=Spanish Guitar
TTITLE3=Home Run King
TTITLE4=Here Without You
TTITLE5=No Other
TTITLE6=I Can't Live Without You
TTITLE7=Set You Free This Time
TTITLE8=She Darked The Sun
TTITLE9=In The Pines
TTITLE10=Train Leaves Here This Morning
TTITLE11=Silver Raven
EXTD=Live at Ebbet's Field, Denver, CO - 19 February 1975
EXTT0=
EXTT1=
EXTT2=
EXTT3=
EXTT4=
EXTT5=
EXTT6=
EXTT7=
EXTT8=
EXTT9=
EXTT10=
EXTT11=
PLAYORDER=
